<svg width="110" height="38" viewBox="0 0 110 38" fill="none" xmlns="http://www.w3.org/2000/svg">
    <mask id="mask0_34_2401" style="mask-type:luminance" maskUnits="userSpaceOnUse" x="0" y="6" width="25" height="26">
        <path d="M24.0695 6.35107H0.0664062V31.8761H24.0695V6.35107Z" fill="white"/>
    </mask>
    <g mask="url(#mask0_34_2401)">
        <path d="M24.0695 19.4068C24.0695 18.5392 24.0019 17.667 23.8579 16.8135H12.3086V21.7281H18.9224C18.6479 23.3132 17.7661 24.7154 16.4748 25.6063V28.7951H20.4206C22.7377 26.5723 24.0695 23.2897 24.0695 19.4068Z" fill="#4285F4"/>
        <path d="M12.3092 31.876C15.6116 31.876 18.3966 30.7458 20.4256 28.7949L16.4799 25.6061C15.3821 26.3846 13.9649 26.8254 12.3137 26.8254C9.11926 26.8254 6.41076 24.579 5.43894 21.5591H1.36719V24.8464C3.44581 29.1562 7.67953 31.876 12.3092 31.876Z" fill="#34A853"/>
        <path d="M5.43421 21.5591C4.9213 19.974 4.9213 18.2577 5.43421 16.6726V13.3853H1.36696C-0.369717 16.9915 -0.369717 21.2402 1.36696 24.8464L5.43421 21.5591Z" fill="#FBBC04"/>
        <path d="M12.3092 11.4016C14.0548 11.3734 15.742 12.0581 17.0063 13.3149L20.5021 9.67113C18.2886 7.50458 15.3506 6.31344 12.3092 6.35096C7.67951 6.35096 3.44581 9.07088 1.36719 13.3852L5.43443 16.6726C6.40175 13.6478 9.11475 11.4016 12.3092 11.4016Z" fill="#EA4335"/>
    </g>
    <path d="M49.7508 15.6882C49.4397 15.1179 49.0119 14.6836 48.4674 14.3854C47.923 14.0873 47.2878 13.9382 46.5619 13.9382C45.7582 13.9382 45.0452 14.1197 44.4229 14.4827C43.8007 14.8456 43.3146 15.3642 42.9646 16.0382C42.6146 16.7123 42.4396 17.4901 42.4396 18.3716C42.4396 19.279 42.6146 20.0698 42.9646 20.7439C43.3276 21.4179 43.8266 21.9365 44.4618 22.2994C45.097 22.6624 45.8359 22.8439 46.6785 22.8439C47.7156 22.8439 48.5647 22.5717 49.2258 22.0272C49.8869 21.4698 50.3212 20.6985 50.5286 19.7133H45.8619V17.6327H53.212V20.005C53.0305 20.9513 52.6416 21.8263 52.0453 22.63C51.449 23.4337 50.6777 24.0819 49.7314 24.5745C48.798 25.0541 47.748 25.2939 46.5813 25.2939C45.272 25.2939 44.0859 25.0022 43.0229 24.4189C41.9729 23.8226 41.1433 22.9994 40.534 21.9494C39.9377 20.8994 39.6395 19.7068 39.6395 18.3716C39.6395 17.0364 39.9377 15.8438 40.534 14.7938C41.1433 13.7308 41.9729 12.9076 43.0229 12.3243C44.0859 11.728 45.2656 11.4298 46.5619 11.4298C48.0915 11.4298 49.4202 11.8058 50.548 12.5576C51.6758 13.2965 52.4536 14.3401 52.8814 15.6882H49.7508ZM60.0094 25.3522C58.9723 25.3522 58.039 25.1254 57.2094 24.6717C56.3797 24.205 55.7251 23.5504 55.2454 22.7078C54.7788 21.8652 54.5454 20.8929 54.5454 19.7911C54.5454 18.6892 54.7853 17.717 55.2649 16.8744C55.7575 16.0318 56.4251 15.3836 57.2677 14.9299C58.1103 14.4632 59.0501 14.2299 60.0872 14.2299C61.1242 14.2299 62.0641 14.4632 62.9067 14.9299C63.7493 15.3836 64.4104 16.0318 64.89 16.8744C65.3826 17.717 65.6289 18.6892 65.6289 19.7911C65.6289 20.8929 65.3761 21.8652 64.8706 22.7078C64.378 23.5504 63.7039 24.205 62.8483 24.6717C62.0057 25.1254 61.0594 25.3522 60.0094 25.3522ZM60.0094 22.98C60.502 22.98 60.9622 22.8633 61.39 22.63C61.8307 22.3837 62.1807 22.0207 62.44 21.5411C62.6992 21.0614 62.8289 20.4781 62.8289 19.7911C62.8289 18.767 62.5567 17.9827 62.0122 17.4383C61.4807 16.8808 60.8261 16.6021 60.0483 16.6021C59.2705 16.6021 58.6159 16.8808 58.0844 17.4383C57.5658 17.9827 57.3066 18.767 57.3066 19.7911C57.3066 20.8152 57.5594 21.6059 58.0649 22.1633C58.5835 22.7078 59.2316 22.98 60.0094 22.98ZM72.4092 25.3522C71.3721 25.3522 70.4388 25.1254 69.6092 24.6717C68.7795 24.205 68.1249 23.5504 67.6452 22.7078C67.1786 21.8652 66.9452 20.8929 66.9452 19.7911C66.9452 18.6892 67.1851 17.717 67.6647 16.8744C68.1573 16.0318 68.8249 15.3836 69.6675 14.9299C70.5101 14.4632 71.4499 14.2299 72.487 14.2299C73.524 14.2299 74.4639 14.4632 75.3065 14.9299C76.1491 15.3836 76.8102 16.0318 77.2898 16.8744C77.7824 17.717 78.0287 18.6892 78.0287 19.7911C78.0287 20.8929 77.7759 21.8652 77.2704 22.7078C76.7778 23.5504 76.1037 24.205 75.2481 24.6717C74.4055 25.1254 73.4592 25.3522 72.4092 25.3522ZM72.4092 22.98C72.9018 22.98 73.362 22.8633 73.7898 22.63C74.2305 22.3837 74.5805 22.0207 74.8398 21.5411C75.099 21.0614 75.2287 20.4781 75.2287 19.7911C75.2287 18.767 74.9565 17.9827 74.412 17.4383C73.8805 16.8808 73.2259 16.6021 72.4481 16.6021C71.6703 16.6021 71.0157 16.8808 70.4842 17.4383C69.9656 17.9827 69.7064 18.767 69.7064 19.7911C69.7064 20.8152 69.9592 21.6059 70.4647 22.1633C70.9833 22.7078 71.6314 22.98 72.4092 22.98ZM84.2451 14.2299C85.0488 14.2299 85.7553 14.3919 86.3646 14.716C86.9738 15.0271 87.4535 15.4354 87.8035 15.941V14.4049H90.5452V25.255C90.5452 26.2532 90.3443 27.1412 89.9424 27.9189C89.5405 28.7097 88.9378 29.3319 88.134 29.7856C87.3303 30.2523 86.3581 30.4857 85.2173 30.4857C83.6877 30.4857 82.4303 30.1292 81.4451 29.4162C80.4728 28.7032 79.9219 27.731 79.7923 26.4995H82.4951C82.6377 26.9921 82.9423 27.381 83.409 27.6662C83.8886 27.9643 84.4655 28.1134 85.1396 28.1134C85.9303 28.1134 86.572 27.8736 87.0646 27.3939C87.5572 26.9273 87.8035 26.2143 87.8035 25.255V23.5828C87.4535 24.0883 86.9674 24.5096 86.3451 24.8467C85.7359 25.1837 85.0358 25.3522 84.2451 25.3522C83.3377 25.3522 82.508 25.1189 81.7562 24.6522C81.0043 24.1856 80.408 23.5309 79.9673 22.6883C79.5395 21.8328 79.3256 20.854 79.3256 19.7522C79.3256 18.6633 79.5395 17.6975 79.9673 16.8549C80.408 16.0123 80.9978 15.3642 81.7367 14.9104C82.4886 14.4567 83.3247 14.2299 84.2451 14.2299ZM87.8035 19.7911C87.8035 19.1299 87.6738 18.566 87.4146 18.0994C87.1553 17.6197 86.8053 17.2568 86.3646 17.0105C85.9238 16.7512 85.4507 16.6216 84.9451 16.6216C84.4395 16.6216 83.9729 16.7447 83.5451 16.991C83.1173 17.2373 82.7673 17.6003 82.4951 18.0799C82.2358 18.5466 82.1062 19.104 82.1062 19.7522C82.1062 20.4003 82.2358 20.9707 82.4951 21.4633C82.7673 21.9429 83.1173 22.3124 83.5451 22.5717C83.9858 22.8309 84.4525 22.9605 84.9451 22.9605C85.4507 22.9605 85.9238 22.8374 86.3646 22.5911C86.8053 22.3318 87.1553 21.9689 87.4146 21.5022C87.6738 21.0226 87.8035 20.4522 87.8035 19.7911ZM95.9262 10.7882V25.1772H93.2039V10.7882H95.9262ZM108.63 19.5577C108.63 19.9466 108.604 20.2966 108.552 20.6077H100.677C100.742 21.3855 101.014 21.9948 101.494 22.4355C101.973 22.8763 102.563 23.0967 103.263 23.0967C104.274 23.0967 104.994 22.6624 105.421 21.7939H108.358C108.046 22.8309 107.45 23.6865 106.569 24.3606C105.687 25.0217 104.605 25.3522 103.321 25.3522C102.284 25.3522 101.351 25.1254 100.521 24.6717C99.7047 24.205 99.063 23.5504 98.5964 22.7078C98.1426 21.8652 97.9158 20.8929 97.9158 19.7911C97.9158 18.6762 98.1426 17.6975 98.5964 16.8549C99.0501 16.0123 99.6853 15.3642 100.502 14.9104C101.319 14.4567 102.258 14.2299 103.321 14.2299C104.346 14.2299 105.259 14.4502 106.063 14.891C106.88 15.3317 107.509 15.9605 107.949 16.7771C108.403 17.5808 108.63 18.5077 108.63 19.5577ZM105.81 18.7799C105.797 18.0799 105.545 17.5225 105.052 17.1077C104.559 16.6799 103.957 16.466 103.244 16.466C102.57 16.466 101.999 16.6734 101.533 17.0882C101.079 17.4901 100.8 18.054 100.696 18.7799H105.81Z" fill="#777777"/>
</svg>
