<svg width="146" height="28" viewBox="0 0 146 28" fill="none" xmlns="http://www.w3.org/2000/svg">
    <g clip-path="url(#clip0_34_2355)">
        <path d="M41.2568 2.09717H57.3034L43.445 25.2097H27.3984L41.2568 2.09717Z" fill="#1A5AA4"/>
        <path d="M26.6689 2.09717H38.3392L24.4808 25.2097H12.8105L26.6689 2.09717Z" fill="#4A90E2"/>
        <path d="M14.999 2.09717H23.7517L9.8933 25.2097H1.14062L14.999 2.09717Z" fill="#86B5EC"/>
    </g>
    <path d="M79.6318 8.62301V8.97859C79.2288 8.99044 78.9265 9.03785 78.725 9.12082C78.5236 9.19193 78.3873 9.33416 78.3161 9.54751C78.2569 9.749 78.2272 10.069 78.2272 10.5076V19.3259C78.2272 19.7526 78.2569 20.0726 78.3161 20.2859C78.3873 20.4993 78.5236 20.6415 78.725 20.7126C78.9265 20.7838 79.2288 20.8312 79.6318 20.8549V21.2104C79.3355 21.1867 78.968 21.1749 78.5295 21.1749C78.0909 21.163 77.6465 21.1571 77.1961 21.1571C76.6983 21.1571 76.2301 21.163 75.7915 21.1749C75.353 21.1749 75.0033 21.1867 74.7426 21.2104V20.8549C75.1456 20.8312 75.4478 20.7838 75.6493 20.7126C75.8627 20.6415 76.0049 20.4993 76.076 20.2859C76.1471 20.0726 76.1827 19.7526 76.1827 19.3259V9.60085L76.2716 9.6364L71.898 21.2816H71.6135L67.0266 9.76086V18.8636C67.0266 19.3614 67.0621 19.7526 67.1332 20.037C67.2043 20.3097 67.3584 20.5052 67.5955 20.6237C67.8325 20.7423 68.194 20.8193 68.68 20.8549V21.2104C68.4548 21.1867 68.1644 21.1749 67.8088 21.1749C67.4651 21.163 67.1392 21.1571 66.831 21.1571C66.5347 21.1571 66.2384 21.163 65.942 21.1749C65.6457 21.1749 65.4027 21.1867 65.2131 21.2104V20.8549C65.6042 20.8193 65.9006 20.7482 66.1021 20.6415C66.3035 20.523 66.4399 20.3274 66.511 20.0548C66.5821 19.7822 66.6176 19.4089 66.6176 18.9348V10.5076C66.6176 10.069 66.5821 9.749 66.511 9.54751C66.4399 9.33416 66.3035 9.19193 66.1021 9.12082C65.9006 9.03785 65.6042 8.99044 65.2131 8.97859V8.62301C65.4027 8.63486 65.6457 8.64671 65.942 8.65857C66.2384 8.67042 66.5347 8.67635 66.831 8.67635C67.1747 8.67635 67.5184 8.67042 67.8622 8.65857C68.2177 8.64671 68.52 8.63486 68.7689 8.62301L72.698 18.7214L72.3602 18.9525L76.2182 8.67635C76.3723 8.67635 76.5323 8.67635 76.6983 8.67635C76.8642 8.67635 77.0301 8.67635 77.1961 8.67635C77.6465 8.67635 78.0909 8.67042 78.5295 8.65857C78.968 8.64671 79.3355 8.63486 79.6318 8.62301ZM83.2189 21.3349C82.7211 21.3349 82.2944 21.2401 81.9389 21.0504C81.5833 20.8608 81.3166 20.6 81.1388 20.2682C80.961 19.9363 80.8721 19.557 80.8721 19.1303C80.8721 18.6088 80.9907 18.188 81.2277 17.868C81.4648 17.5361 81.767 17.2695 82.1344 17.068C82.5137 16.8665 82.9108 16.7005 83.3256 16.5702C83.7523 16.4279 84.1494 16.2976 84.5168 16.179C84.8961 16.0487 85.2042 15.9005 85.4413 15.7346C85.6902 15.5686 85.8147 15.3493 85.8147 15.0767V13.8678C85.8147 13.4411 85.7435 13.1033 85.6013 12.8544C85.4709 12.5936 85.2872 12.4099 85.0502 12.3032C84.825 12.1966 84.5524 12.1432 84.2323 12.1432C83.9597 12.1432 83.6693 12.1847 83.3612 12.2677C83.053 12.3388 82.81 12.487 82.6322 12.7121C82.893 12.7833 83.1063 12.9255 83.2723 13.1388C83.4501 13.3403 83.539 13.5952 83.539 13.9033C83.539 14.2352 83.4264 14.496 83.2012 14.6856C82.9878 14.8752 82.7152 14.9701 82.3833 14.9701C82.0159 14.9701 81.7433 14.8575 81.5655 14.6323C81.3877 14.3952 81.2988 14.1226 81.2988 13.8144C81.2988 13.4944 81.3759 13.2337 81.5299 13.0322C81.6959 12.8307 81.9092 12.641 82.17 12.4632C82.4544 12.2736 82.8159 12.1136 83.2545 11.9832C83.7049 11.8528 84.2027 11.7876 84.7479 11.7876C85.2576 11.7876 85.6961 11.8469 86.0636 11.9654C86.4428 12.0721 86.7569 12.2499 87.0058 12.4988C87.3022 12.7714 87.4977 13.1151 87.5925 13.53C87.6874 13.933 87.7348 14.4248 87.7348 15.0056V19.9126C87.7348 20.2089 87.7703 20.4223 87.8414 20.5526C87.9244 20.6712 88.0548 20.7304 88.2326 20.7304C88.3511 20.7304 88.4637 20.7008 88.5704 20.6415C88.6889 20.5823 88.8252 20.4934 88.9793 20.3748L89.1571 20.6771C88.9082 20.8786 88.6533 21.0386 88.3926 21.1571C88.1437 21.2756 87.8237 21.3349 87.4325 21.3349C87.0532 21.3349 86.7451 21.2756 86.508 21.1571C86.271 21.0386 86.0932 20.8667 85.9747 20.6415C85.868 20.4163 85.8147 20.1378 85.8147 19.8059C85.5065 20.3037 85.1391 20.683 84.7124 20.9438C84.2857 21.2045 83.7879 21.3349 83.2189 21.3349ZM84.0723 20.4815C84.4042 20.4815 84.7124 20.3867 84.9968 20.1971C85.2931 20.0074 85.5657 19.723 85.8147 19.3437V15.8057C85.6843 15.9953 85.4946 16.1612 85.2457 16.3035C84.9968 16.4339 84.7301 16.5702 84.4457 16.7124C84.1612 16.8546 83.8886 17.0206 83.6279 17.2102C83.3789 17.388 83.1715 17.6191 83.0056 17.9036C82.8397 18.188 82.7567 18.5495 82.7567 18.9881C82.7567 19.4503 82.8752 19.8178 83.1123 20.0904C83.3493 20.3511 83.6693 20.4815 84.0723 20.4815ZM92.7997 9.10304V12.0543H95.2531V12.4099H92.7997V19.397C92.7997 19.883 92.8886 20.2267 93.0663 20.4282C93.2441 20.6297 93.499 20.7304 93.8308 20.7304C94.139 20.7304 94.4116 20.606 94.6487 20.3571C94.8976 20.1082 95.1109 19.6874 95.2887 19.0948L95.6265 19.2192C95.4843 19.8474 95.2294 20.3808 94.862 20.8193C94.5064 21.246 93.979 21.4594 93.2797 21.4594C92.8767 21.4594 92.5389 21.406 92.2663 21.2993C91.9937 21.2045 91.7566 21.0623 91.5551 20.8727C91.2944 20.6 91.1166 20.2741 91.0218 19.8948C90.927 19.5155 90.8795 19.0118 90.8795 18.3836V12.4099H89.2439V12.0543H90.8795V9.45862C91.247 9.44676 91.5907 9.41713 91.9107 9.36972C92.2307 9.31046 92.5271 9.22156 92.7997 9.10304ZM100.455 11.7876C100.858 11.7876 101.243 11.841 101.61 11.9477C101.978 12.0425 102.298 12.1788 102.57 12.3566C102.855 12.5344 103.068 12.7477 103.21 12.9966C103.364 13.2455 103.441 13.5181 103.441 13.8144C103.441 14.17 103.341 14.4486 103.139 14.65C102.938 14.8515 102.677 14.9523 102.357 14.9523C102.037 14.9523 101.77 14.8634 101.557 14.6856C101.344 14.5078 101.237 14.253 101.237 13.9211C101.237 13.6129 101.326 13.364 101.504 13.1744C101.681 12.9729 101.889 12.8425 102.126 12.7833C102.019 12.6055 101.829 12.4573 101.557 12.3388C101.296 12.2084 101.012 12.1432 100.703 12.1432C100.383 12.1432 100.075 12.2262 99.779 12.3921C99.4945 12.5581 99.2397 12.8129 99.0145 13.1566C98.7893 13.5003 98.6056 13.9448 98.4633 14.49C98.333 15.0353 98.2678 15.6931 98.2678 16.4635C98.2678 17.4591 98.3804 18.2532 98.6056 18.8459C98.8426 19.4266 99.1508 19.8415 99.5301 20.0904C99.9094 20.3393 100.318 20.4637 100.757 20.4637C101.041 20.4637 101.332 20.4104 101.628 20.3037C101.936 20.1971 102.227 20.0193 102.499 19.7704C102.784 19.5215 103.033 19.1837 103.246 18.757L103.584 18.8814C103.453 19.2726 103.246 19.6696 102.961 20.0726C102.689 20.4756 102.327 20.8075 101.877 21.0682C101.426 21.329 100.875 21.4594 100.223 21.4594C99.4767 21.4594 98.8011 21.2756 98.1967 20.9082C97.5922 20.5408 97.1122 20.0074 96.7566 19.3081C96.401 18.597 96.2232 17.7317 96.2232 16.7124C96.2232 15.7168 96.401 14.8515 96.7566 14.1167C97.124 13.37 97.6277 12.7951 98.2678 12.3921C98.9078 11.9891 99.6368 11.7876 100.455 11.7876ZM107.713 7.28959V13.7611C108.009 13.0262 108.424 12.5166 108.957 12.2321C109.503 11.9358 110.078 11.7876 110.682 11.7876C111.156 11.7876 111.541 11.8528 111.838 11.9832C112.146 12.1017 112.401 12.2677 112.602 12.481C112.815 12.7062 112.97 12.9966 113.064 13.3522C113.159 13.7078 113.207 14.1878 113.207 14.7923V19.557C113.207 20.0548 113.301 20.3926 113.491 20.5704C113.693 20.7482 114.024 20.8371 114.487 20.8371V21.2104C114.273 21.1986 113.953 21.1867 113.527 21.1749C113.1 21.1512 112.685 21.1393 112.282 21.1393C111.867 21.1393 111.458 21.1512 111.055 21.1749C110.664 21.1867 110.374 21.1986 110.184 21.2104V20.8371C110.587 20.8371 110.872 20.7482 111.038 20.5704C111.204 20.3926 111.286 20.0548 111.286 19.557V14.2945C111.286 13.9507 111.257 13.6426 111.198 13.37C111.138 13.0855 111.008 12.8603 110.806 12.6944C110.617 12.5166 110.332 12.4277 109.953 12.4277C109.526 12.4277 109.141 12.5521 108.797 12.801C108.466 13.0381 108.199 13.37 107.997 13.7967C107.808 14.2234 107.713 14.7093 107.713 15.2545V19.557C107.713 20.0548 107.796 20.3926 107.962 20.5704C108.128 20.7482 108.412 20.8371 108.815 20.8371V21.2104C108.614 21.1986 108.317 21.1867 107.926 21.1749C107.547 21.1512 107.156 21.1393 106.753 21.1393C106.338 21.1393 105.911 21.1512 105.473 21.1749C105.046 21.1867 104.726 21.1986 104.513 21.2104V20.8371C104.975 20.8371 105.301 20.7482 105.491 20.5704C105.692 20.3926 105.793 20.0548 105.793 19.557V9.42306C105.793 8.88969 105.698 8.49856 105.508 8.24965C105.331 7.9889 104.999 7.85852 104.513 7.85852V7.48516C104.892 7.52072 105.259 7.5385 105.615 7.5385C106.006 7.5385 106.38 7.52072 106.735 7.48516C107.091 7.43775 107.417 7.37256 107.713 7.28959ZM127.232 21.2104V20.8549C127.635 20.8312 127.937 20.7838 128.139 20.7126C128.34 20.6415 128.47 20.4993 128.53 20.2859C128.601 20.0726 128.636 19.7526 128.636 19.3259V10.5076C128.636 10.069 128.601 9.749 128.53 9.54751C128.47 9.33416 128.334 9.19193 128.121 9.12082C127.919 9.03785 127.623 8.99044 127.232 8.97859V8.62301C127.528 8.63486 127.896 8.64671 128.334 8.65857C128.784 8.67042 129.229 8.67635 129.667 8.67635C130.165 8.67635 130.628 8.67042 131.054 8.65857C131.481 8.64671 131.825 8.63486 132.085 8.62301V8.97859C131.694 8.99044 131.398 9.03785 131.196 9.12082C130.995 9.19193 130.859 9.33416 130.788 9.54751C130.716 9.749 130.681 10.069 130.681 10.5076V19.3259C130.681 19.7526 130.716 20.0726 130.788 20.2859C130.859 20.4993 130.995 20.6415 131.196 20.7126C131.398 20.7838 131.694 20.8312 132.085 20.8549V21.2104C131.825 21.1867 131.481 21.1749 131.054 21.1749C130.628 21.163 130.165 21.1571 129.667 21.1571C129.229 21.1571 128.784 21.163 128.334 21.1749C127.896 21.1749 127.528 21.1867 127.232 21.2104ZM119.765 21.2104V20.8549C120.168 20.8312 120.47 20.7838 120.671 20.7126C120.873 20.6415 121.003 20.4993 121.063 20.2859C121.134 20.0726 121.169 19.7526 121.169 19.3259V10.5076C121.169 10.069 121.134 9.749 121.063 9.54751C121.003 9.33416 120.867 9.19193 120.654 9.12082C120.452 9.03785 120.156 8.99044 119.765 8.97859V8.62301C120.037 8.63486 120.387 8.64671 120.814 8.65857C121.252 8.67042 121.72 8.67635 122.218 8.67635C122.669 8.67635 123.107 8.67042 123.534 8.65857C123.972 8.64671 124.334 8.63486 124.618 8.62301V8.97859C124.227 8.99044 123.931 9.03785 123.729 9.12082C123.528 9.19193 123.392 9.33416 123.32 9.54751C123.249 9.749 123.214 10.069 123.214 10.5076V19.3259C123.214 19.7526 123.249 20.0726 123.32 20.2859C123.392 20.4993 123.528 20.6415 123.729 20.7126C123.931 20.7838 124.227 20.8312 124.618 20.8549V21.2104C124.334 21.1867 123.972 21.1749 123.534 21.1749C123.107 21.163 122.669 21.1571 122.218 21.1571C121.72 21.1571 121.252 21.163 120.814 21.1749C120.387 21.1749 120.037 21.1867 119.765 21.2104ZM122.414 15.059V14.7034H129.436V15.059H122.414ZM133.481 8.62301C133.753 8.63486 134.103 8.64671 134.53 8.65857C134.968 8.67042 135.401 8.67635 135.828 8.67635C136.397 8.67635 136.936 8.67042 137.445 8.65857C137.967 8.64671 138.334 8.64079 138.548 8.64079C139.555 8.64079 140.391 8.77117 141.055 9.03192C141.73 9.29268 142.228 9.66011 142.548 10.1342C142.88 10.5965 143.046 11.1298 143.046 11.7343C143.046 12.1017 142.969 12.4929 142.815 12.9077C142.672 13.3107 142.418 13.69 142.05 14.0456C141.683 14.3893 141.185 14.6738 140.557 14.899C139.929 15.1241 139.129 15.2367 138.157 15.2367H136.45V14.8812H137.979C138.773 14.8812 139.377 14.7508 139.792 14.49C140.219 14.2174 140.503 13.8618 140.646 13.4233C140.8 12.9729 140.877 12.4751 140.877 11.9299C140.877 10.9935 140.675 10.2705 140.272 9.76086C139.869 9.23934 139.17 8.97859 138.174 8.97859C137.665 8.97859 137.327 9.07933 137.161 9.28083C137.007 9.48232 136.93 9.89123 136.93 10.5076V19.3259C136.93 19.7526 136.965 20.0726 137.037 20.2859C137.108 20.4993 137.244 20.6415 137.445 20.7126C137.647 20.7838 137.943 20.8312 138.334 20.8549V21.2104C138.05 21.1867 137.688 21.1749 137.25 21.1749C136.823 21.163 136.385 21.1571 135.934 21.1571C135.436 21.1571 134.968 21.163 134.53 21.1749C134.103 21.1749 133.753 21.1867 133.481 21.2104V20.8549C133.884 20.8312 134.186 20.7838 134.387 20.7126C134.589 20.6415 134.719 20.4993 134.779 20.2859C134.85 20.0726 134.885 19.7526 134.885 19.3259V10.5076C134.885 10.069 134.85 9.749 134.779 9.54751C134.719 9.33416 134.583 9.19193 134.37 9.12082C134.168 9.03785 133.872 8.99044 133.481 8.97859V8.62301ZM136.485 14.9345C137.09 14.9582 137.576 14.9878 137.943 15.0234C138.311 15.0471 138.619 15.0708 138.868 15.0945C139.117 15.1182 139.348 15.1479 139.561 15.1834C140.45 15.3019 141.096 15.539 141.499 15.8946C141.914 16.2501 142.198 16.7954 142.352 17.5302L142.797 19.3437C142.904 19.8533 143.016 20.2148 143.135 20.4282C143.265 20.6415 143.455 20.7482 143.704 20.7482C143.893 20.7363 144.047 20.683 144.166 20.5882C144.296 20.4815 144.433 20.3393 144.575 20.1615L144.824 20.3571C144.551 20.7245 144.267 21.003 143.97 21.1927C143.674 21.3705 143.277 21.4594 142.779 21.4594C142.269 21.4594 141.831 21.329 141.463 21.0682C141.108 20.7956 140.853 20.2859 140.699 19.5392L140.343 17.7613C140.237 17.2517 140.118 16.8131 139.988 16.4457C139.857 16.0664 139.674 15.7701 139.437 15.5568C139.211 15.3434 138.88 15.2367 138.441 15.2367H136.521L136.485 14.9345Z" fill="#1A5AA4"/>
    <defs>
        <clipPath id="clip0_34_2355">
            <rect width="56.6146" height="23.2265" fill="white" transform="translate(0.775391 2.09717)"/>
        </clipPath>
    </defs>
</svg>
